<svg width="1440" height="381" viewBox="0 0 1440 381" fill="none" xmlns="http://www.w3.org/2000/svg">
	<g clip-path="url(#clip0)">
		<path d="M0 3C0 1.34314 1.34315 0 3 0H1437C1438.66 0 1440 1.34315 1440 3V381H0V3Z" fill="#FFEECC"/>
		<mask id="mask0" mask-type="alpha" maskUnits="userSpaceOnUse" x="767" y="23" width="507" height="497">
			<path
				d="M1093.98 101.072L1080.35 249.754L1217.55 308.656L1071.93 341.644L1058.31 490.326L981.938 362.032L836.323 395.02L934.738 282.742L858.367 154.448L995.562 213.35L1093.98 101.072Z"
				fill="#181716"/>
			<path
				d="M1089.51 111.48L1076.87 249.434L1076.64 251.967L1078.97 252.97L1206.27 307.623L1071.16 338.231L1068.68 338.792L1068.45 341.325L1055.81 479.279L984.945 360.241L983.644 358.056L981.164 358.618L846.055 389.226L937.37 285.049L939.046 283.136L937.745 280.951L866.885 161.913L994.181 216.566L996.518 217.569L998.194 215.657L1089.51 111.48Z"
				stroke="#181716" stroke-opacity="0.2" stroke-width="7"/>
		</mask>
		<g mask="url(#mask0)">
			<path
				d="M1089.51 111.48L1076.87 249.434L1076.64 251.967L1078.97 252.97L1206.27 307.623L1071.16 338.231L1068.68 338.792L1068.45 341.325L1055.81 479.279L984.945 360.241L983.644 358.056L981.164 358.618L846.055 389.226L937.37 285.049L939.046 283.136L937.745 280.951L866.885 161.913L994.181 216.566L996.518 217.569L998.194 215.657L1089.51 111.48Z"
				stroke="#181716" stroke-opacity="0.2" stroke-width="7"/>
			<path
				d="M657.467 369.14L809.18 529L949.325 438.131L1288.81 529L1322.01 186.27L1207.4 143.001L657.467 485.902L1322.01 377.132L657.467 292.305L977.346 143.001L1071.83 529L1322.01 282.727L1045.17 143.001L939.433 243.733L750.046 143.001L657.467 192.427"
				stroke="#D1C3A7" stroke-width="7" stroke-linejoin="round"/>
			<path d="M657.467 143.001L790.595 230.167L1025.39 339.268L1322.01 186.27" stroke="#D1C3A7" stroke-width="7"
						stroke-linejoin="round"/>
			<path d="M1322.01 143L1134.83 188.253" stroke="#D1C3A7" stroke-width="7" stroke-linejoin="round"/>
			<path
				d="M1045.17 143L1237.57 365.952L1045.73 422.351L926.981 528.999L793.758 309.7L758.215 423.084L1033.51 372.439L1322.01 463.539L1071.83 528.999"
				stroke="#D1C3A7" stroke-width="7" stroke-linejoin="round"/>
			<path d="M1025.39 339.267L657.469 529" stroke="#D1C3A7" stroke-width="7" stroke-linejoin="round"/>
			<path
				d="M921.18 169.219L939.433 243.735L914.626 287.801L657.467 292.306L839.153 143.045L1237.57 365.955L1260.56 251.713L1322.01 241.137"
				stroke="#D1C3A7" stroke-width="7" stroke-linejoin="round"/>
		</g>
	</g>
	<defs>
		<clipPath id="clip0">
			<rect width="1440" height="381" fill="white"/>
		</clipPath>
	</defs>
</svg>
