<svg width="237" height="35" fill="#80807F" xmlns="http://www.w3.org/2000/svg">
	<path fill-rule="evenodd" clip-rule="evenodd"
				d="M16.123 5.365c-.414.184-.476-.817-.256-.904.052-.013.078.004.123.02-.006-.445-.058-.92.133-1.209.541-.82 1.584-.93 2.228-.12.283.355.22.76.208 1.328.158-.04.19-.017.217.135.058.321-.014.915-.368.75-.045.308-.285.693-.142 1.089.07.194.267.236.436.332.3.17.677.28 1.014.424.258.11.514.296.797.37.11.028.402-.098.522-.12.348-.067.748-.01 1.052.064.487.117.746.213 1.08.563l.588.138.854.323c.106.019.204-.02.275-.037l.796-.12c1.213-.057 2.56.268 3.65-.055.29-.086.422-.33.665-.47.208-.122.458-.253.673-.342l.53-.139.039.056c-.087.35-.589.333-.627.581h.02c.112.046.284.01.388-.009.142-.026.246-.011.361-.046.184-.056.394-.155.607-.218C28.893 3.086 23.504 0 17.376 0c-6.17 0-11.59 3.13-14.673 7.848.233.08.464.188.638.23.176.042.53.042.588-.083-.2-.273-.51-.177-.635-.562.015-.023.012-.042.038-.028.284-.016 1.26.436 1.423.572.095.08.135.218.246.286.243.149.571.187.91.25.274.048.802.014 1.043-.029l.502-.01.873-.092h.474c.328-.058.807.227 1.024.167l.19-.103.768-.276c.212-.06.522-.04.7-.147.236-.254.467-.391.817-.48.336-.085.777-.176 1.185-.101l.54.147.237-.101c.337-.137.613-.314.948-.443.264-.1.997-.337 1.072-.562.141-.426-.126-.777-.161-1.117zM11.354 9.877c-.486.087-1.025-.05-1.527.028l-.635.028c-.212.032-.525.066-.768.028C7.204 9.766 6.182 9.52 5 9.297l-.891.082c-.288.046-.52-.084-.807-.037-.257.043-.688.115-.91 0l.01-.055c.092-.109.426-.075.474-.148-.175.005-.69.035-.925-.024A16.457 16.457 0 000 16.905c0 9.12 7.43 16.556 16.72 16.892l.019-.27-.047-.203c.021-.185.125-.484.104-.7-.01-.098-.08-.221-.048-.36.035-.15.167-.385.095-.61-.167-.244-.17-.312-.17-.608l-.067-.535c-.093-.355-.29-.726-.408-1.088-.299-.92-.547-1.907-.777-2.878-.082-.344-.13-.832-.066-1.209v-.387c.03-.174.149-.377.114-.563-.073-.388-.112-.819-.19-1.235l-.02-.49c-.027-.098-.097-.222-.132-.331-.1-.313-.17-.654-.256-.95-.134-.468-.14-.997-.227-1.503l-.01-2.169c-.043-.257-.068-.503-.094-.747-.094-.857-.003-1.464.226-2.315.121-.304.292-1.546.219-1.89-.079-.37-.11-.708-.247-1.015l-.588-1.016-.132-.479c-.114-.236-.272-.439-.294-.774-.39.005-.692.125-1.005.194l-.493.055-.873.156zM19.575 12.405c-.116.603.027 1.836.247 2.453.228.772.252 1.396.17 2.177-.067.356-.179.864-.104 1.319l.02.535a4.6 4.6 0 010 1.337l-.153 1.034c-.09.376-.214.822-.322 1.171l-.038.793-.142.756.095.277c.088.3.173.887.105 1.264-.196 1.075-.485 2.053-.798 3.025l-.312.82-.039.592c.016.237.03.28-.113.47l.02.572c.06.32.136.704.189.996.023.128-.066.248-.038.406.023.132.058.228.019.378l-.143.24c.08.237.196.473.159.76 9.12-.514 16.358-7.874 16.358-16.876 0-3.032-.821-5.877-2.259-8.338l-.006.002c-.387.068-.768.145-1.195.157v.009l.01.036.018.01c.375.081 1.154.07 1.395.24-.003.052-.012.062-.03.092a3.556 3.556 0 01-.996.027c-.123-.02-.391-.088-.51-.046v.01c.207.028.85.108.947.23l-.029.055c-.338.085-.748.006-1.052-.064-.143-.033-.331.043-.445.064l-.494-.009c-.217-.034-.456-.109-.673-.073l-.692.091-1.166.324c-.541.119-1.016.165-1.602.258-.325.05-.959-.027-1.252-.074-.448-.072-.869.054-1.29-.018-.511-.089-1.066-.106-1.593-.222-.322-.07-.633-.175-1.033-.193-.08.332-.227.537-.322.803-.087.238-.085.454-.2.644-.268.445-.596.888-.711 1.486zM17.574 23.177c-.075-.437.064-.851-.01-1.3-.062-.385-.112-.708-.198-1.051l-.048-.352-.047.693-.133.728v.322l-.019.453c.041.25.093.597.057.83-.055.357-.159.767-.142 1.126.007.144-.045.346-.01.507l.219.498c.095.294.133.63.198.96.078.39-.064.851-.113 1.124v.545c0 .395-.02.812.028 1.172l.019-.01.152-.822.019-.691.01-.424-.039-.793c-.04-.195-.154-.428-.113-.673l.133-.785.189-.682c.072-.407-.092-1.033-.152-1.375zM88.484 5.373V.148l3.35-.01-3.35 5.235z"/>
	<path fill-rule="evenodd" clip-rule="evenodd"
				d="M230.46 4.38c-1.37.032-2.044.217-2.797.876-.664.654-.874 1.192-.943 2.369.039 1.111.301 1.645.941 2.345.784.62 1.455.893 2.799.893h2.599l-.003 1.667c-1.925.05-2.745.231-3.573.956-.53.634-.877 1.718-1.2 3.805a25.52 25.52 0 01-.257 1.848c-.107 1.008-.759 2.025-1.404 2.199h-5.851c2.143-.997 2.7-1.117 2.954-1.75.229-.581.483-1.597.673-3.03.277-2.764 1.915-3.795 2.616-4.2-1.06-.16-1.849-.56-2.549-1.083-.936-.702-1.554-2.17-1.523-3.65-.051-1.478.693-2.892 1.833-3.706 1.029-.856 3.003-1.377 5.2-1.354H237v18.773h-3.943V4.38h-2.597zm-15.452 16.959V6.129l-9.396 15.209h-3.909V2.565h3.942v14.377l9.008-14.377h4.297l.001 18.774h-3.943zM198.189 2.565l-.001 1.819h-8.051l.001 16.954h-3.945V2.565h11.996zM172.2 4.179c-1.986.064-3.195.66-4.523 2.346-1.123 1.586-1.616 3.242-1.616 5.503 0 2.277.483 3.926 1.587 5.478 1.284 1.674 2.491 2.27 4.552 2.342 2.044-.072 3.229-.687 4.526-2.341 1.091-1.56 1.576-3.204 1.615-5.48-.03-2.303-.511-3.962-1.585-5.504-1.339-1.683-2.519-2.303-4.556-2.344zm0-1.87c3.217-.073 6.173 1.135 7.879 3.122 1.637 1.721 2.517 4.1 2.517 6.597.063 2.49-.923 4.961-2.616 6.673-1.828 1.946-4.674 3.053-7.778 3.017-3.062.07-5.904-1.03-7.751-3.018-1.693-1.703-2.683-4.17-2.619-6.67-.032-2.576.921-5.091 2.587-6.703 1.772-1.96 4.616-3.08 7.781-3.017zm-22.389 5.047l-7.015 13.978h-2.194l10.151-20.212 10.155 20.217h-4.071l-7.026-13.983zm-20.905-3.18c-2.05.057-3.283.693-4.557 2.346-1.123 1.586-1.608 3.245-1.608 5.506 0 2.277.479 3.926 1.584 5.478 1.256 1.7 2.546 2.293 4.639 2.333 2.017-.122 3.036-.604 4.355-2.211 1.123-1.586 1.727-3.357 1.691-5.6-.037-2.286-.437-3.826-1.499-5.388-1.237-1.69-2.492-2.415-4.605-2.465zm-.029-1.899c3.14-.052 6.122 1.167 7.909 3.137 1.691 1.8 2.561 4.273 2.494 6.614-.006 2.504-.912 4.985-2.623 6.674-1.754 1.921-4.631 3.038-7.78 3.015-3.123.038-5.963-1.07-7.751-3.015-1.697-1.682-2.661-4.156-2.62-6.674.043-2.587.945-5.084 2.584-6.706 1.788-1.927 4.645-3.064 7.787-3.045zm-19.218 8.385c1.142-.05 1.667-.273 2.353-.985.575-.758.771-1.207.751-2.154-.022-.994-.213-1.496-.752-2.171-.676-.664-1.177-.969-2.354-.969h-2.454l.003 6.28h2.453zm.512-8.097c1.847-.092 3.79.603 4.815 1.615a4.428 4.428 0 011.496 3.34c-.022 1.392-.513 2.537-1.587 3.413-1.037 1.013-2.865 1.544-4.724 1.544h-2.97v8.86h-3.941V2.566h6.911zM94.376 21.339v-15.2L84.98 21.338h-3.908L81.07 2.565h3.943v14.377l9.008-14.377h4.296l.002 18.774h-3.943zM76.9 2.565l.002 1.82h-6.766l-.002 6.328H76.9v1.819l-6.765.002v6.988l6.766-.002v1.819H66.192V2.565H76.9zm-25.845.005v7.967l6.964-.007V2.563l3.936-.004.008 18.777-3.94.004v-8.985h-6.968l-.007 8.983h-3.933V2.563l3.94.007z"/>
	<path
		d="M55.65 28.636c-.748-.52-1.668-.816-2.933-.816-1.208 0-2.243.306-2.991.867-.762.56-1.222 1.326-1.222 2.264 0 .938.445 1.693 1.208 2.254.747.56 1.797.877 3.005.877 1.265 0 2.272-.296 3.005-.877l.95.724c-1.05.714-2.373 1.071-3.955 1.071-1.625 0-2.948-.357-3.983-1.071-1.107-.775-1.697-1.785-1.697-2.978 0-1.193.59-2.203 1.697-2.978 1.035-.714 2.358-1.071 3.983-1.071 1.538 0 2.832.336 3.853 1l-.92.734zM73.152 34.848h-5.709v-7.792h5.71v.918h-4.286v2.437h4.285v.898h-4.285v2.62h4.285v.919zM87.704 34.848h-1.423v-6.874h-2.804v-.918h7.031v.918h-2.804v6.874zM102.316 30.666v3.263h.906c1.783 0 2.674-.54 2.674-1.61 0-1.062-.891-1.653-2.444-1.653h-1.136zm-1.423 4.182v-7.792h1.423v2.682h1.193c1.151 0 2.114.265 2.79.714.676.449 1.064 1.091 1.064 1.826 0 .775-.388 1.407-1.093 1.856-.704.448-1.754.714-3.034.714h-2.343zM132.358 34.848h-1.438v-7.792h1.438v3.13c0 .164-.014.327-.029.521l.432-.367 4.026-3.284h1.855l-4.616 3.63-.403.276c.101.03.173.072.216.112.015.02.029.041.072.071l.072.051 4.774 3.652h-1.999l-3.997-3.132-.13-.122c-.072-.071-.172-.142-.302-.255.015.194.029.367.029.53v2.979zM149.672 34.848h-1.524l4.486-7.802h1.194l4.63 7.802h-1.668l-3.221-5.854-.115-.235a6.853 6.853 0 01-.216-.49l-.215.48-.115.245-3.236 5.854zM176.017 27.056h1.337v7.792h-1.395v-5.14c0-.45.072-.919.23-1.398-.172.398-.446.663-.69.908l-5.565 5.63h-1.164v-7.792h1.394v5.19c0 .327-.086.745-.273 1.235.244-.408.518-.755.791-1.04l5.335-5.385zM190.298 34.848h-1.423v-7.792h1.423v3.315h5.766v-3.315h1.424v7.792h-1.424v-3.56h-5.766v3.56zM216.255 27.056h1.337v7.792h-1.395v-5.14c0-.45.072-.919.231-1.398-.173.398-.447.663-.691.908l-5.565 5.63h-1.164v-7.792h1.395v5.19c0 .327-.087.745-.273 1.235.244-.408.517-.755.79-1.04l5.335-5.385zM230.551 34.848h-1.438v-7.792h1.438v3.13c0 .164-.014.327-.028.521l.431-.367 4.026-3.284h1.855l-4.616 3.63-.403.276c.101.03.173.072.216.112.015.02.029.041.072.071l.072.051 4.774 3.652h-1.999l-3.997-3.132-.129-.122c-.072-.071-.173-.142-.302-.255.014.194.028.367.028.53v2.979z"/>
</svg>
