<svg width="82" height="32" fill="#710EB1" xmlns="http://www.w3.org/2000/svg">
	<path
		d="M9.333 4.864H1.99c0 17.524-.088 21.399-1.99 22.733v3.1h3.096c.221-4.607.045-9.127 0-23.034h3.14v23.034h3.097V4.864zM15.542 16.403h5.307V9.514c0-3.746-1.282-5.08-3.715-5.08-2.654 0-4.689 1.593-4.689 5.855V26.09c0 3.703 1.371 5.038 4.07 5.038 2.963 0 4.379-3.1 4.29-7.19l-.132-5.167h-.62l-.132 5.037c-.089 2.756-.664 4.392-1.99 4.392-1.24 0-2.39-.473-2.39-3.573v-8.224zm1.282-9.042c.885 0 1.371.43 1.371 3.574V15.8h-2.653V9.86c0-1.55.22-2.498 1.282-2.498zM33.157 4.864h-9.2v25.834h3.096V7.663h3.008v23.035h3.096V4.864zM40.485.128H36.68V2.11h3.804V.129zm1.061 0V2.11h3.804V.129h-3.804zm-.62 4.306c-2.653 0-4.688 1.593-4.688 5.856v15.8c0 3.704 1.371 5.038 4.07 5.038 2.963 0 4.379-3.1 4.29-7.19l-.132-5.167h-.62l-.132 5.038c-.089 2.756-.664 4.392-1.99 4.392-1.24 0-2.39-.474-2.39-3.574v-8.224h5.308V9.515c0-3.746-1.282-5.081-3.715-5.081zm-1.592 11.367V9.859c0-1.55.222-2.497 1.283-2.497.885 0 1.372.43 1.372 3.573v4.866h-2.654zM53.22 16.619l4.157-11.755H53.66l-1.017 9.86h-.486l-1.062-4.564-1.46-5.296h-3.494l4.246 12.314-4.423 13.52h3.715l1.372-11.625h.398l1.061 5.64 1.46 5.985h3.494l-4.246-14.08zM68.752 4.864h-3.14l-3.716 20.538h-.62l.62-9.946.31-10.592H59.02v25.833h3.14l3.672-20.537h.664l-.62 9.946-.265 10.591h3.14V4.864zM78.173 4.864v12.314h-3.229V4.864h-3.096v25.833h3.096V18.04h3.229v12.658h3.096V4.864h-3.096z"/>
</svg>
