<svg width="586" height="600" viewBox="0 0 586 600" fill="none" stroke="#FEEDCB" stroke-opacity="0.6" stroke-width="3"
		 stroke-linejoin="round" xmlns="http://www.w3.org/2000/svg">
	<path
		d="M434.469 94.3649L253.553 86.0115L244.915 217.591L17.3738 354.722L228.732 573.461L313.913 534.521L356.894 26.1813L101.925 462.006L485.518 139.233L427.198 405.632L124.218 233.161L164.647 517.134L393.8 443.63L378.941 325.568L539.125 278.288L551.875 197.557"/>
	<path d="M584.713 226.42L461.246 250.104L273.143 317.937L228.732 573.461"/>
	<path d="M257.478 598.729L319.584 467.436"/>
	<path
		d="M393.799 443.631L150.932 421.228L207.928 280.815L195.545 152.009L406.848 205.432L349.018 119.308L247.104 303.116L44.5156 411.549L124.217 233.162"/>
	<path d="M273.143 317.937L328.26 1.01443"/>
	<path
		d="M437.437 358.856L378.941 325.568L361.879 285.937L485.517 139.233L495.219 328.184L150.932 421.227L215.513 500.818L192.279 541.421"/>
</svg>
