<svg width="280" height="33" xmlns="http://www.w3.org/2000/svg">
	<path fill-rule="evenodd" clip-rule="evenodd"
				d="M184.069 16.03c0-6.232-4.098-9.953-10.244-9.981-6.225 0-10.243 4.105-10.243 9.926 0 6.26 4.097 9.983 10.243 9.983 6.227 0 10.244-4.11 10.244-9.927zm-3.604-.027c0 4.053-2.543 6.784-6.612 6.784v-.004c-4.371-.028-6.666-3.005-6.666-6.78 0-4.026 2.516-6.756 6.613-6.784 4.371.028 6.665 3.005 6.665 6.784zM225.505 16.03c0-6.232-4.097-9.953-10.243-9.981-6.227 0-10.242 4.105-10.244 9.926 0 6.26 4.098 9.983 10.244 9.983 6.227 0 10.243-4.11 10.243-9.927zm-3.603-.027c0 4.053-2.543 6.784-6.613 6.784l.001-.004c-4.37-.028-6.665-3.005-6.666-6.78 0-4.026 2.515-6.756 6.613-6.784 4.37.028 6.665 3.005 6.665 6.784zM229.086 25.65V6.35h8.303c4.262 0 6.447 1.598 6.447 4.797 0 2.206-.874 3.668-2.841 4.44 2.349.413 3.415 1.93 3.415 4.438 0 4-2.841 5.627-7.486 5.627h-7.838zm7.812-11.14c2.158 0 3.523-.964 3.523-2.62 0-1.544-1.011-2.371-3.441-2.371h-4.479v4.991h4.397zm.249 7.97c2.62 0 3.824-.856 3.824-2.704 0-1.847-1.365-2.564-3.769-2.564h-4.698v5.267h4.643zM254.296 12.36H251.7V6.348h-3.413V25.65h6.041c5.572 0 8.577-2.262 8.577-6.756 0-4.357-2.546-6.536-8.609-6.536zM251.7 22.48v-6.95h2.896c3.333 0 4.78.91 4.78 3.282 0 2.62-1.638 3.667-4.835 3.667H251.7z"
				fill="#FF0D65"/>
	<path d="M269.894 17.295h8.796l.004-3.171h-8.796V9.519h9.806v-3.17h-13.225V25.65H280v-3.172h-10.106v-5.184z"
				fill="#FF0D65"/>
	<path fill-rule="evenodd" clip-rule="evenodd"
				d="M191.058 19.64v6.01h-3.415V6.35h6.363c6.036 0 8.609 2.177 8.609 6.534 0 4.495-3.004 6.756-8.609 6.756h-2.948zm0-10.121v6.949h3.195c3.169 0 4.807-1.048 4.807-3.667 0-2.371-1.419-3.282-4.752-3.282h-3.25zM144.215 22.48c1.092-2.62 1.884-6.26 1.967-12.134l.054-3.997h13.439v16.13h2.212v6.756h-3.195v-3.584h-13.358v3.584h-3.195V22.48h2.076zm3.333 0h8.712V9.518h-6.909v.91c-.11 5.046-.715 9.017-1.803 12.05z"
				fill="#FF0D65"/>
	<path
		d="M132.305 6.073c-3.032 0-5.244.91-6.337 1.709l-.003 4.797c1.121-1.709 3.443-3.39 6.337-3.336 2.022.055 3.606.772 3.606 2.564 0 1.435-.847 2.62-3.305 2.62h-2.87v2.84h2.896c2.977 0 4.234.8 4.234 2.51 0 1.958-1.857 2.95-4.179 2.978-3.525.028-6.01-1.516-7.184-3.475v4.247c1.016 1.158 3.659 2.427 7.129 2.4 5.136-.028 7.785-2.593 7.785-5.929 0-2.538-1.417-4.082-4.367-4.523 2.213-.8 3.387-2.288 3.387-4.55 0-3.391-2.841-4.825-7.129-4.852z"
		fill="#FF0D65"/>
	<path
		d="M51.852 22.198a7.349 7.349 0 003.556-.895l.913-.496 2.665 1.971c-1.758 1.89-4.35 2.929-7.32 2.929-2.838 0-5.432-1.011-7.288-2.832-1.855-1.822-2.878-4.353-2.878-7.103s1.038-5.243 2.89-7c1.852-1.756 4.445-2.723 7.303-2.723 2.635 0 4.94.804 6.664 2.325l.196.166-2.954 2.185a6.27 6.27 0 00-3.747-1.176c-3.712 0-6.408 2.66-6.408 6.325 0 3.664 2.696 6.324 6.408 6.324z"
		fill="#21A038"/>
	<path fill-rule="evenodd" clip-rule="evenodd"
				d="M71.607 13.762h-5.012V9.485h8l4.312-3.19h-16.43v19.157h8.593c4.824 0 7.59-2.194 7.59-6.018.005-3.657-2.502-5.672-7.053-5.672zm-.717 8.5h-4.295v-5.31h4.295c2.615 0 3.83.888 3.83 2.655 0 1.805-1.293 2.655-3.83 2.655z"
				fill="#21A038"/>
	<path d="M96.931 6.296L92.62 9.485h-6.001v4.683h8.796v3.19H86.62v4.904H96.93v3.19H82.5V6.296h14.431z" fill="#21A038"/>
	<path fill-rule="evenodd" clip-rule="evenodd"
				d="M100.768 6.296h7.858c5.013 0 8.125 2.626 8.125 6.855 0 4.228-3.115 6.874-8.128 6.874h-3.736v5.427h-4.119V6.296zm4.119 10.54h3.65c2.639 0 4.091-1.305 4.091-3.675s-1.452-3.676-4.091-3.676h-3.65v7.35z"
				fill="#21A038"/>
	<path d="M28.47 6.218c.75.977 1.392 2.044 1.905 3.181l-14.48 10.748-6.051-3.82v-4.594l6.05 3.819 12.577-9.334z"
				fill="#21A038"/>
	<path
		d="M3.672 16.003c0-.206.005-.41.015-.614L.02 15.204A16.01 16.01 0 004.655 27.32l2.6-2.618a12.321 12.321 0 01-3.583-8.699z"
		fill="url(#paint0_linear)"/>
	<path
		d="M15.893 3.696c.204 0 .408.008.61.018L16.687.02A15.79 15.79 0 004.655 4.687l2.599 2.618a12.142 12.142 0 018.639-3.609z"
		fill="url(#paint1_linear)"/>
	<path
		d="M15.893 28.31c-.204 0-.408-.005-.61-.015l-.183 3.692a15.79 15.79 0 0012.032-4.668l-2.6-2.617a12.15 12.15 0 01-8.639 3.608z"
		fill="url(#paint2_linear)"/>
	<path d="M22.785 5.844l3.091-2.294A15.755 15.755 0 0015.894 0v3.697a12.088 12.088 0 016.89 2.147z"
				fill="url(#paint3_linear)"/>
	<path
		d="M31.787 16.003c0-.979-.088-1.937-.255-2.868l-3.421 2.539c.002.11.005.219.005.328 0 3.613-1.555 6.868-4.026 9.121l2.467 2.746a16.01 16.01 0 005.23-11.866z"
		fill="#21A038"/>
	<path d="M15.895 28.31c-3.588 0-6.82-1.566-9.059-4.054L4.11 26.74c2.908 3.235 7.112 5.267 11.786 5.267V28.31z"
				fill="url(#paint4_linear)"/>
	<path d="M7.698 6.882L5.23 4.136A16.012 16.012 0 000 16.003h3.672a12.319 12.319 0 014.026-9.121z"
				fill="url(#paint5_linear)"/>
	<defs>
		<linearGradient id="paint0_linear" x1="5.399" y1="26.857" x2="1.337" y2="15.197" gradientUnits="userSpaceOnUse">
			<stop offset=".144" stop-color="#F2E913"/>
			<stop offset=".304" stop-color="#E7E518"/>
			<stop offset=".582" stop-color="#CADB26"/>
			<stop offset=".891" stop-color="#A3CD39"/>
		</linearGradient>
		<linearGradient id="paint1_linear" x1="5.704" y1="5.341" x2="16.054" y2="1.424" gradientUnits="userSpaceOnUse">
			<stop offset=".059" stop-color="#0FA8E0"/>
			<stop offset=".538" stop-color="#0099F9"/>
			<stop offset=".923" stop-color="#0291EB"/>
		</linearGradient>
		<linearGradient id="paint2_linear" x1="14.857" y1="29.776" x2="26.549" y2="27.152" gradientUnits="userSpaceOnUse">
			<stop offset=".123" stop-color="#A3CD39"/>
			<stop offset=".285" stop-color="#86C339"/>
			<stop offset=".869" stop-color="#21A038"/>
		</linearGradient>
		<linearGradient id="paint3_linear" x1="15.126" y1="1.238" x2="25.128" y2="4.303" gradientUnits="userSpaceOnUse">
			<stop offset=".057" stop-color="#0291EB"/>
			<stop offset=".79" stop-color="#0C8ACB"/>
		</linearGradient>
		<linearGradient id="paint4_linear" x1="5.03" y1="26.29" x2="15.922" y2="30.331" gradientUnits="userSpaceOnUse">
			<stop offset=".132" stop-color="#F2E913"/>
			<stop offset=".298" stop-color="#EBE716"/>
			<stop offset=".531" stop-color="#D9E01F"/>
			<stop offset=".802" stop-color="#BBD62D"/>
			<stop offset=".983" stop-color="#A3CD39"/>
		</linearGradient>
		<linearGradient id="paint5_linear" x1="1.368" y1="16.451" x2="5.786" y2="5.038" gradientUnits="userSpaceOnUse">
			<stop offset=".07" stop-color="#A3CD39"/>
			<stop offset=".26" stop-color="#81C55F"/>
			<stop offset=".922" stop-color="#0FA8E0"/>
		</linearGradient>
	</defs>
</svg>
