<svg width="20" height="17" fill="#710EB1" xmlns="http://www.w3.org/2000/svg">
	<path
		d="M19.556 2.01a8.36 8.36 0 01-2.31.633A3.986 3.986 0 0019.009.427a8.012 8.012 0 01-2.542.97 4.008 4.008 0 00-6.935 2.741c0 .318.027.624.093.915A11.348 11.348 0 011.362.859a4.036 4.036 0 00-.55 2.027c0 1.388.716 2.619 1.782 3.332a3.96 3.96 0 01-1.812-.494v.044a4.027 4.027 0 003.212 3.939c-.326.09-.682.132-1.05.132-.258 0-.517-.015-.76-.068.52 1.587 1.994 2.754 3.746 2.792a8.055 8.055 0 01-4.97 1.71c-.33 0-.645-.014-.96-.055a11.287 11.287 0 006.15 1.8c7.378 0 11.41-6.112 11.41-11.409 0-.177-.005-.348-.014-.518a7.999 7.999 0 002.01-2.082z"/>
</svg>
