<svg width="246" height="218" fill="#181716" fill-opacity=".45" xmlns="http://www.w3.org/2000/svg">
	<path
		d="M244.543 81.893l-23.056-14.566a1.095 1.095 0 00-.708-.167l-19.162 1.916-.664-3.002a1.078 1.078 0 00-.103-.279l-3.359-6.33a.586.586 0 00-.052-.086l-3.357-5.146a1.192 1.192 0 00-.182-.216l-4.489-4.092a1.102 1.102 0 00-.115-.093l-5.147-3.588-2.1-3.99-1.782-3.779a1.033 1.033 0 00-.149-.245l-3.134-3.798a1.118 1.118 0 00-.75-.402l-1.027-.103.416-2.22 2.61-4.995a1.14 1.14 0 00.108-.32l1.123-6.297.904-5.592c.031-.197.009-.4-.064-.586l-2.47-6.269a1.111 1.111 0 00-.542-.59l-2.874-1.439-2.299-3.342a1.122 1.122 0 00-.635-.449L164.769.037A1.136 1.136 0 00164.48 0h-6.937c-.077 0-.154.008-.228.025L144.326 2.72a1.124 1.124 0 00-.537.277l-3.35 3.13a1.116 1.116 0 00-.348.955l.449 3.58a1.12 1.12 0 00.617.856l2.476 1.225-1.924 5.708a1.116 1.116 0 00-.059.358v2.169l-.426 3.416-.802 2.627-2.72 3.676a1.119 1.119 0 00-.049 1.26l.694 1.107a1.112 1.112 0 00.796.512l2.081.285-.089.44c-.022.11-.027.223-.014.334l.171 1.691a1.116 1.116 0 00.934.98l.299.05-.387.891a1.118 1.118 0 00-.013.863l.652 1.62c0 1.157.245 5.391 3.186 5.815 1.539.226 4.99.093 6.249.035l1.177 1.058-3.336 5.004-3.556 1.883a1.08 1.08 0 00-.245.174l-4.031 3.805c-.1.09-.183.196-.245.314l-4.004 8.058c-.018.039-.035.078-.049.117l-3.493 9.605-4.673 4.46-3.45 2.416-4.122 2.125-3.885 1.4-5.004.918-20.661-16.052a1.122 1.122 0 00-1.071-.166l-23.281 8.506a1.117 1.117 0 00-.268 1.96l9.195 6.548-5.715 5.33a1.628 1.628 0 00-.09.096l-5.147 6.088a1.112 1.112 0 00-.213.382l-1.524 4.793-8.891 14.435c-.02.032-.04.064-.057.098l-7.004 14.446-3.029 1.63a1.129 1.129 0 00-.546.676l-1.515 5.235-1.96 2.696-2.644 1.225c-.265.123-.471.343-.576.615l-1.01 2.622-4.901 3.877c-1.426.204-7.842 1.066-13.645 1.066-6.549 0-13.861-1.095-13.935-1.107a1.117 1.117 0 00-.943.301C2.713 154.325 0 157.138 0 158.934c0 8.247 10.185 11.244 10.619 11.367l.044.012c.652.157 15.946 3.818 17.314 4.046.948.157 10.5 2.61 16.691 4.22.264.069.544.038.787-.086l4.029-2.046a1.131 1.131 0 00.58-.735l2.015-8.244c.03-.126.038-.256.024-.385l-.56-5.252 1.224-.245a1.12 1.12 0 00.804-.644l1.623-3.61c2.227-.946 5.53-2.103 6.643-1.98a2.262 2.262 0 001.855-.611c1.079-1.021 1.194-3.053 1.187-3.977l2.59-3.825 3.23 27.356c.017.133.057.263.117.382l3.34 6.453 1.586 3.372-1.394 3.581c-.05.129-.076.267-.076.406v5.595a1.113 1.113 0 00.46.904l1.084.79-6.034 3.548-14.434 4.656a1.12 1.12 0 00-.698.647c-.06.147-1.441 3.635.531 6.83 3.056 4.948 9.237 6.115 14.388 6.115a39.264 39.264 0 008.362-.937l22.384-6.268a1.125 1.125 0 00.818-1.076v-4.926a1.12 1.12 0 00-.154-.564l-3.098-5.3-1.923-4.487-.407-3.453.627-2.721a1.13 1.13 0 00-.027-.605l-1.029-3.085.39-2.152.897-4.264a1.116 1.116 0 00-.246-.963l-2.507-2.885.94-3.227c.03-.103.045-.209.046-.316v-5.6l34.137 6.21-7.352 35.652a1.123 1.123 0 00.846 1.316l3.894.894c.08.019.162.028.245.027h4.703a1.11 1.11 0 001.09-.874l7.835-35.199 52.728 10.861 9.178 22.713a1.115 1.115 0 001.036.701h6.269a1.116 1.116 0 001.071-1.436l-7.494-25.343 42.151-96.982a1.114 1.114 0 00-.436-1.392zm-85.452 64.548l-36.924-28.075 40.625-20.095 24.327 17.454 1.657 7.981-29.685 22.735zm30.187-20.308l10.658 51.363-38.997-29.653 28.339-21.71zm-94.987 17.002l22.546-22.124 1.608-.794 10.214 48.444-34.034-6.183-.334-19.343zM65.57 122.113l-4.198 3.044 3.514-12.709.684 9.665zm.186 2.628l1.301 18.379-12.133 5.392 5.494-19.877 5.338-3.894zm27.369-49.675l18.027 14.005-17.567 12.744-.46-26.75zm19.152 15.954l5.482 25.952-2.233 2.193-21.455 10.617-.437-25.242 18.643-13.52zm87.527-19.951l1.595 5.6-15.476 7.658-4.411-6.695-3.627-17.476 21.919 10.913zm2.382.198l12.697-1.271-11.447 5.665-1.25-4.394zm1.961 40.652l-16.981-25.712 14.856-7.352 8.109 28.483-5.984 4.581zm6.633-2.267l6.159 21.627-11.55-17.49 5.391-4.137zm-26.883-24.325l-.735.36-.444-2.14 1.179 1.78zm-5.735-12.744l-12.096-18.306 9.254 4.605 2.842 13.701zM164.5 51.001l7.004-10.511 3.237 15.605-10.241-5.094zm-1.637-1.574l-18.231-27.592 22.159-4.08 4.081 19.666-8.009 12.006zm16.525 29.08l1.715 8.207-18.096 8.952-19.115-13.711 18.971-28.477 16.525 25.029zm2.171 10.469l4.889 23.509-21.384-15.341 16.495-8.168zm-20.831 7.815l-39.872 19.73 21.794-32.709 18.078 12.979zm-68.887 34.088l-22.615 11.19-1.336-18.87 23.527-17.056.424 24.736zm.044 2.476l.152 8.859-20.495 20.122-2.11-17.873 22.453-11.108zm2.218-1.098l16.289-8.06-16.155 15.858-.134-7.798zm36.73 35.836l-10.148-48.033 36.566 27.793-26.418 20.24zm58.97-50.447l3.553 2.546-2.607 1.997-.946-4.543zm-.672-3.235l-5.489-26.467 1.505-.735 17.228 26.075-7.166 5.489-6.078-4.362zm14.479.735l12.116 18.338-18.625-13.356 6.509-4.982zm16.613 19.473l-7.526-26.43L241.2 86.351l-20.977 48.268zm21.769-51.709l-29.952 22.958-7.979-28.02 16.762-8.296 21.169 13.358zm-66.44-46.7l2.75 3.341 1.733 3.676.022.044 2.237 4.255c.084.158.204.294.351.396l5.32 3.703 4.318 3.946 3.252 4.987 3.264 6.154.343 1.524-21.845-10.866-4.036-19.488 1.189-1.784 1.102.113zm.618-10.387l-2.608 4.996a1.18 1.18 0 00-.107.312l-.63 3.357-.211.319-3.622-17.456 8.908-1.64-.642 4.014-1.088 6.098zm-3.431-18.699c.107.156.252.282.422.368l2.752 1.374 1.806 4.613-9.18 1.688-2.593-12.498 4.563 1.225 2.23 3.23zm-30.055 2.657l-.301-2.414 2.71-2.532 12.565-2.598h5.913l2.767 13.33-22.451 4.131v-.713l2.172-6.462a1.121 1.121 0 00-.569-1.363l-2.806-1.38zm10.683 34.82a1.123 1.123 0 00-.809-.286c-1.284.071-4.901.21-6.271 0-.865-.125-1.307-2.325-1.282-3.793a1.129 1.129 0 00-.081-.442l-.559-1.36.772-1.779a1.11 1.11 0 00-.044-.981 1.111 1.111 0 00-.801-.568l-.87-.142-.069-.671.289-1.446a1.117 1.117 0 00-.948-1.326l-2.74-.372v-.018l2.38-3.21c.075-.101.132-.215.169-.336l.897-2.911c.019-.062.032-.125.039-.189l.074-.58 16.117 24.396-4.129-2.056-2.134-1.93zm-13.374 23.211l3.921-7.825 3.774-3.563 3.676-1.946c.165-.087.305-.213.407-.368l3.485-5.222 5.997 2.992-19.181 28.768-5.35-3.837 3.271-8.999zm-21.198 21.357c.06-.01.119-.026.177-.046l4.029-1.451c.046-.017.091-.037.134-.059l4.252-2.205a1.09 1.09 0 00.13-.076l3.593-2.5c.046-.032.09-.068.132-.105l4.242-4.061 5.348 3.835-21.321 31.996-5.176-24.507 4.46-.82zm-45.726 6.47l6.665-6.22a1.114 1.114 0 00-.112-1.727l-8.578-6.115 19.814-7.239.51 29.079-23.664 17.155-1.032-14.554 1.434-4.507 4.963-5.872zM57.57 120.967l4.793-7.794-3.894 14.089-6.095 4.411 5.196-10.706zm-24.544 34.144c.193-.029.375-.109.527-.23l5.372-4.252c.157-.124.278-.288.35-.475l.956-2.488 2.5-1.151c.173-.081.323-.205.434-.361l2.24-3.08a1.16 1.16 0 00.169-.346l1.436-4.972 2.94-1.568c.043-.028.084-.058.123-.091l7.435-5.392-5.237 18.944-28.182 12.498-13.013-6.286c2.343.204 5.05.37 7.68.37 6.73.01 13.966-1.075 14.27-1.12zm-30.79 3.828c.035-.517 1.226-2.122 2.647-3.582l16.522 7.996-10.537 4.678c-1.701-.576-8.632-3.293-8.632-9.092zm42.583 17.368c-2.794-.735-15.194-3.943-16.476-4.154-.865-.144-8.655-1.987-13.942-3.247l9.641-4.276 22.414 10.849-1.637.828zm3.399-2.45l-21.495-10.406 24.784-10.991-2.265 8.195c-.037.135-.049.277-.034.416l.65 6.063-1.64 6.723zm14.606-24.051a1.126 1.126 0 00-.191.688c.068 1.211-.223 2.483-.49 2.632a.099.099 0 01-.054 0c-2.206-.245-7.205 1.895-8.186 2.326a1.12 1.12 0 00-.57.571l-1.282 2.882 2.107-7.629 10.962-4.859-2.296 3.389zm10.072 24.016l-1.024-8.673 20.218-19.85.308 17.865-14.958 31.008-.92-.669v-4.818l1.49-3.832a1.121 1.121 0 00-.029-.883l-1.82-3.847-3.265-6.301zM57.1 210.266c-1.02-1.649-.735-3.5-.507-4.345l13.986-4.517c.078-.024.153-.058.223-.1l7.036-4.137 4.166 2.529-17.432 15.018.147.171c-3.078-.6-5.974-1.923-7.619-4.619zm20.277 4.2c-.086.022-4.901 1.132-9.957.76l16.62-14.317 13.194 7.997-19.857 5.56zm18.483-15.035c.018.043.038.083.06.123l2.983 5.112v2.635l-13.081-7.928 7.739-6.669.2 1.716c.014.106.042.21.084.309l2.015 4.702zm-1.755-21.622l-.787 3.752-.448 2.451a1.12 1.12 0 00.04.554l1.019 3.058-.518 2.248-9.599 8.29-4.509-2.728 13.101-27.14v1.891l-1.073 3.649a1.125 1.125 0 00.228 1.052l2.546 2.923zm113.649 27.009h-4.017l-9.119-22.58a1.12 1.12 0 00-.811-.677l-54.404-11.192a1.12 1.12 0 00-1.319.853l-7.861 35.387h-3.676l-2.696-.622 7.269-35.289 27.979-21.453 41.572 31.613 7.083 23.96zm-5.735-28.303l-10.768-51.895 4.002-3.068 23.365 16.763-16.599 38.2z"/>
</svg>
