<svg width="16" height="17" fill="#710EB1" xmlns="http://www.w3.org/2000/svg">
	<path fill-rule="evenodd" clip-rule="evenodd"
				d="M5 .128h6a5 5 0 015 5v6a5 5 0 01-5 5H5a5 5 0 01-5-5v-6a5 5 0 015-5zm6 14.5c1.93 0 3.5-1.57 3.5-3.5v-6c0-1.93-1.57-3.5-3.5-3.5H5c-1.93 0-3.5 1.57-3.5 3.5v6c0 1.93 1.57 3.5 3.5 3.5h6z"/>
	<path fill-rule="evenodd" clip-rule="evenodd"
				d="M4 8.128a4 4 0 118 0 4 4 0 01-8 0zm1.5 0c0 1.378 1.122 2.5 2.5 2.5s2.5-1.122 2.5-2.5c0-1.379-1.122-2.5-2.5-2.5a2.503 2.503 0 00-2.5 2.5z"/>
	<circle cx="12.299" cy="3.828" r=".533"/>
</svg>
