<svg width="202" height="126" fill="none" xmlns="http://www.w3.org/2000/svg">
	<path
		d="M94.223 100.232l-14.975-3.08a.614.614 0 00-.728.476l-4.345 19.563h-2.029l-1.499-.342 4.022-19.508L90.138 85.49l4.094 3.106v-1.553l-3.07-2.334 3.07-2.352v-1.562l-4.094 3.133-20.425-15.523 22.454-11.114 2.047 1.472v-1.526l-.79-.566.79-.395v-1.382l-1.93.951-10.567-7.577L92.203 32.53l9.013 13.637h1.482l-.189-.287-2.002-9.66 12.12 6.033.88 3.097-1.652.817h3.169l-.045-.161 9.265-4.588 7.524 4.75h2.316l-9.472-5.98a.6.6 0 00-.395-.09l-10.593 1.06-.377-1.661a.441.441 0 00-.054-.153l-1.859-3.501c-.009-.018-.018-.036-.027-.045l-1.858-2.846a.618.618 0 00-.099-.117l-2.478-2.262a.391.391 0 00-.063-.054l-2.846-1.984-1.158-2.209-.987-2.091c-.018-.045-.054-.09-.081-.126l-1.733-2.1a.633.633 0 00-.413-.225l-.565-.054.233-1.23 1.446-2.765c.026-.054.044-.117.062-.18l.62-3.474.494-3.098a.566.566 0 00-.036-.323l-1.365-3.465a.582.582 0 00-.296-.323l-1.59-.8-1.274-1.849a.625.625 0 00-.35-.251l-3.717-.988c-.054-.018-.108-.018-.162-.018h-3.833c-.045 0-.08 0-.126.01l-7.164 1.49a.555.555 0 00-.296.152l-1.859 1.733a.614.614 0 00-.188.53l.251 1.984a.61.61 0 00.341.476l1.365.673-1.06 3.16c-.017.063-.035.126-.035.198v1.194l-.234 1.885-.449 1.454-1.499 2.03a.609.609 0 00-.027.69l.386.611c.099.153.26.26.44.287l1.15.162-.046.242a.617.617 0 00-.009.18l.1.934a.62.62 0 00.51.547l.162.027-.215.494a.624.624 0 00-.009.476l.36.898c.008.637.143 2.98 1.768 3.214.853.125 2.756.053 3.456.018l.647.583-1.84 2.765-1.967 1.042a.742.742 0 00-.135.099l-2.235 2.11a.562.562 0 00-.126.17l-2.226 4.453c-.01.018-.018.045-.027.063l-1.93 5.306-2.586 2.468-1.903 1.338-2.28 1.176-2.146.772-2.766.512-11.42-8.87a.614.614 0 00-.592-.09l-12.874 4.704a.633.633 0 00-.404.494.64.64 0 00.251.584l5.073 3.618-3.16 2.945-.054.053-2.846 3.367a.627.627 0 00-.117.216l-.844 2.648-4.91 7.981-.028.054-3.869 7.99-1.679.898a.638.638 0 00-.305.377l-.835 2.891-1.06 1.472-1.463.674a.616.616 0 00-.314.34l-.557 1.455-2.702 2.146c-.79.117-4.327.593-7.541.593-3.618 0-7.667-.602-7.703-.61a.643.643 0 00-.52.16c-.647.62-2.147 2.173-2.147 3.17 0 4.56 5.63 6.212 5.872 6.284.009 0 .018.01.027.01.359.089 8.816 2.109 9.57 2.235.52.09 5.809 1.445 9.23 2.334a.648.648 0 00.43-.045l2.227-1.131a.636.636 0 00.323-.404l1.113-4.56c.018-.073.018-.145.018-.216l-.314-2.9.682-.135a.596.596 0 00.44-.359l.889-2.002c1.23-.52 3.052-1.167 3.672-1.095a1.22 1.22 0 001.023-.341c.593-.566.665-1.688.656-2.2l1.427-2.119 1.787 15.119a.654.654 0 00.063.215l1.849 3.564.88 1.868-.772 1.984a.67.67 0 00-.045.224v3.098a.64.64 0 00.251.502l.602.44-3.34 1.958-7.981 2.576a.637.637 0 00-.386.359c-.036.081-.8 2.011.296 3.771 1.688 2.738 5.108 3.385 7.954 3.385 2.424 0 4.435-.467 4.615-.512l12.371-3.466a.605.605 0 00.45-.592v-2.72a.658.658 0 00-.082-.315l-1.715-2.935-1.059-2.478-.224-1.912.35-1.509a.599.599 0 00-.018-.332l-.566-1.706.216-1.185.493-2.361a.627.627 0 00-.134-.53l-1.383-1.589.521-1.777a.562.562 0 00.027-.17v-3.098l18.871 3.43-4.058 19.688a.615.615 0 00.467.727l2.155.494c.045.009.09.018.134.018h2.595a.615.615 0 00.602-.485l4.318-19.455 14.625 3.007v-1.256h.018zm26.744-58.572l-6.329 3.134-.691-2.433 7.02-.7zM91.036 56.474l-22.05 10.908L81.034 49.3l10.001 7.173zM82.129 15.04l12.246-2.253L96.63 23.66l-4.426 6.644L82.129 15.04zm14.859 10.316l1.795 8.627-5.665-2.819 3.87-5.808zm3.681 17.74L93.98 32.979l5.117 2.54 1.572 7.578zm-1.446-20.11l1.517 1.85.961 2.028c0 .01.009.018.009.027l1.239 2.352c.045.09.117.162.198.216l2.935 2.047 2.388 2.181 1.796 2.756 1.804 3.403.189.844-12.075-6.006-2.236-10.774.656-.987.62.063zm1.302-11.33l-.35 2.217-.602 3.376-1.445 2.765c-.027.054-.045.117-.063.17l-.35 1.86-.117.179-2.002-9.652 4.929-.915zM96.44 5.112l1.23 1.787c.063.09.144.152.233.206l1.518.763.996 2.54-5.072.935-1.437-6.904 2.532.673zM81.052 8.38l-.161-1.338 1.499-1.4 6.949-1.437h3.268l1.526 7.371-12.407 2.28v-.395l1.203-3.573a.62.62 0 00-.315-.754l-1.562-.754zm5.908 19.248a.644.644 0 00-.45-.161c-.709.036-2.71.116-3.465.009-.476-.072-.718-1.284-.709-2.101a.768.768 0 00-.045-.243l-.305-.763.422-.987a.598.598 0 00-.027-.539.592.592 0 00-.44-.314l-.485-.08-.036-.369.162-.799a.612.612 0 00-.52-.736l-1.518-.207-.009-.009 1.32-1.777a.46.46 0 00.09-.189l.493-1.607.027-.108.036-.323 8.915 13.485-2.28-1.14-1.176-1.042zm-7.39 12.83l2.165-4.328 2.091-1.966 2.03-1.077a.552.552 0 00.224-.207L88 29.99l3.322 1.651-10.594 15.9-2.954-2.119 1.796-4.964zM67.847 52.263l.099-.027 2.226-.799a.266.266 0 00.072-.036l2.352-1.212c.027-.009.045-.026.072-.044l1.984-1.383c.027-.018.045-.036.072-.063l2.352-2.244 2.954 2.118L68.24 66.26 65.386 52.72l2.46-.458zm-4.229-.054l-9.714 7.039-.251-14.786 9.965 7.747zM38.05 65.13l.377 5.341-2.326 1.68 1.949-7.022zm-4.04 4.713l2.648-4.31-2.155 7.784-3.366 2.442 2.873-5.916zM3.412 90.832c.018-.287.683-1.176 1.464-1.975l9.13 4.417-5.826 2.585c-.934-.323-4.759-1.822-4.768-5.027zm23.54 9.597c-1.544-.404-8.403-2.181-9.112-2.298-.476-.081-4.785-1.096-7.703-1.796l5.332-2.361 12.39 5.997-.907.458zm2.451-8.654c-.018.071-.027.152-.018.233l.36 3.358-.908 3.707L16.96 93.32l13.7-6.078-1.257 4.534zm-13.906.834l-7.192-3.483c1.293.117 2.792.206 4.247.206 3.717 0 7.72-.601 7.891-.628a.642.642 0 00.287-.126l2.972-2.352a.59.59 0 00.189-.26l.53-1.374 1.382-.637a.654.654 0 00.242-.198l1.24-1.705a.602.602 0 00.09-.189l.79-2.747 1.624-.862c.027-.018.045-.036.072-.054l.009.01 4.112-2.982-2.891 10.478-15.595 6.903zm21.411-6.832a.637.637 0 00-.107.377c.036.674-.126 1.374-.27 1.455h-.026c-1.222-.135-3.987 1.05-4.525 1.284a.597.597 0 00-.314.314l-.71 1.589 1.167-4.21 6.06-2.685-1.275 1.876zm-4.363-.727l3.035-10.989 2.953-2.136.719 10.154-6.707 2.971zm6.491-23.477l.79-2.487 2.747-3.24 3.681-3.44a.631.631 0 00.198-.493.609.609 0 00-.26-.467l-4.74-3.375 10.952-4.004.278 16.07-13.08 9.48-.566-8.044zm.673 9.499l13.01-9.427.233 13.673-12.506 6.186-.736-10.432zm.853 11.752l12.408-6.141.08 4.902-11.33 11.123-1.158-9.884zm1.913 16.231l-.566-4.794 11.177-10.97.171 9.875-8.277 17.148-.512-.368v-2.667l.826-2.119a.605.605 0 00-.018-.484l-.997-2.128-1.804-3.493zm-8.736 20.156c-.565-.907-.404-1.94-.278-2.406l7.739-2.496c.045-.009.08-.036.125-.054l3.888-2.289 2.307 1.4-9.633 8.304.08.099c-1.714-.341-3.312-1.086-4.228-2.558zm11.214 2.316c-.045.009-2.703.628-5.504.422l9.184-7.919 7.3 4.417-10.98 3.08zm10.216-8.314a.266.266 0 00.036.072l1.643 2.828v1.455l-7.227-4.382 4.282-3.689.108.951c.01.063.027.117.045.171l1.113 2.594zm-.97-11.949l-.43 2.074-.252 1.364a.707.707 0 00.018.306l.566 1.688-.287 1.238-5.315 4.579-2.487-1.508 7.245-15.002v1.041l-.593 2.02a.624.624 0 00.126.584l1.41 1.616zm-.269-40.508l10.307-7.47 3.034 14.347-1.239 1.212-11.86 5.872-.242-13.96zm.27 15.325l9.004-4.453-8.932 8.763-.072-4.31zm.287 16.699l-.189-10.683L66.76 69.869l.888-.44 5.656 26.78-18.817-3.429zm14.41-23.45L89.104 84.7 74.498 95.886 68.896 69.33z"
		fill="#000"/>
	<path
		d="M101.195 77.23V55.02h4.543v9.103h10.28V55.02h4.533v22.21h-4.533v-9.112h-10.28v9.113h-4.543zM140.393 70.569h-12.632c.574 1.94 2.217 3.295 4.471 3.295 1.777 0 3.268-.853 4.058-2.28l3.519 1.589c-1.427 2.567-4.157 4.38-7.712 4.38-4.983 0-8.753-3.68-8.753-8.501s3.717-8.502 8.6-8.502c5.495-.01 9.328 4.56 8.449 10.019zm-12.569-3.268h8.277c-.574-1.84-2.128-3.08-4.157-3.08-1.93 0-3.519 1.24-4.12 3.08zM151.815 60.855h7.775v16.376h-4.031V61.807l-4.444 15.424h-7.775V60.855h4.031v15.55l4.444-15.55zM180.375 69.043c0 4.821-2.981 8.502-7.048 8.502-2.918 0-5.081-2.002-6.033-5.019V83.57h-4.282V60.855h4.282v4.696c.952-3.017 3.106-5.01 6.033-5.01 4.067 0 7.048 3.68 7.048 8.502zm-4.444 0c0-2.604-1.841-4.57-4.157-4.57-2.604 0-4.471 1.966-4.471 4.57 0 2.63 1.876 4.606 4.471 4.606 2.316-.01 4.157-1.975 4.157-4.606zM191.227 60.541c4.983 0 8.753 3.68 8.753 8.502 0 4.821-3.779 8.502-8.753 8.502-4.983 0-8.762-3.681-8.762-8.502 0-4.821 3.779-8.502 8.762-8.502zm0 13.099c2.478 0 4.318-1.966 4.318-4.606 0-2.604-1.84-4.57-4.318-4.57-2.442 0-4.318 1.966-4.318 4.57 0 2.64 1.876 4.606 4.318 4.606zM108.306 92.888H99.93v3.78h8.376v-3.78zM111.102 103.015V86.639h15.675v16.376h-4.283V90.419h-7.11v12.596h-4.282zM138.356 86.325c3.492 0 6.473 1.876 7.874 5.207l-3.933 1.365c-.727-1.679-2.19-2.63-3.932-2.63-2.442 0-4.318 1.966-4.318 4.57 0 2.63 1.867 4.605 4.318 4.605 1.742 0 3.205-.988 3.932-2.667l3.933 1.365c-1.401 3.331-4.382 5.207-7.874 5.207-4.983 0-8.762-3.68-8.762-8.502.009-4.839 3.779-8.52 8.762-8.52zM157.239 86.64h7.775v16.375h-4.031V87.591l-4.435 15.424h-7.775V86.639h4.031v15.55l4.435-15.55zM105.176 110.834c1.49 0 2.747.817 3.322 2.182l-1.311.449c-.35-.817-1.095-1.311-2.002-1.311-1.248 0-2.209.979-2.209 2.29 0 1.301.961 2.271 2.209 2.271.907 0 1.652-.485 2.002-1.311l1.311.449c-.566 1.365-1.832 2.182-3.322 2.182-2.083 0-3.672-1.562-3.672-3.591 0-2.056 1.58-3.61 3.672-3.61zM116.578 114.91h-5.727c.206 1.096 1.086 1.886 2.271 1.886a2.26 2.26 0 002.047-1.23l1.194.53c-.593 1.14-1.76 1.939-3.277 1.939-2.083 0-3.672-1.562-3.672-3.591 0-2.047 1.553-3.6 3.6-3.6 2.227-.009 3.825 1.804 3.564 4.066zm-5.692-1.113h4.256c-.234-1.005-1.033-1.732-2.128-1.732-1.059 0-1.885.718-2.128 1.732zM119.43 117.891v-5.665h-2.379v-1.257h6.176v1.257h-2.37v5.665h-1.427zM124.328 117.891v-6.922h1.419v2.182h1.948c1.553 0 2.585.987 2.585 2.37s-1.032 2.37-2.585 2.37h-3.367zm1.419-1.266h1.804c.763 0 1.275-.476 1.275-1.113 0-.646-.512-1.113-1.275-1.113h-1.804v2.226zM139.414 114.327l2.72 3.564h-1.724l-2.244-2.837h-1.203v2.837h-1.428v-6.922h1.428v2.828h1.203l2.19-2.828h1.562l-2.504 3.358zM142.594 117.999v-1.275h.179c.907 0 1.311-.242 1.311-2.289v-3.466h5.746v6.922h-1.419v-5.665h-2.98v2.209c0 2.478-.674 3.564-2.721 3.564h-.116zM156.678 110.969h1.4v6.922h-1.427v-4.875l-3.843 4.875h-1.382v-6.922h1.418v4.875l3.834-4.875zM159.68 117.891v-6.922h1.418v2.828h3.726v-2.828h1.427v6.922h-1.427v-2.837h-3.726v2.837h-1.418zM173.12 110.969h1.392v6.922h-1.419v-4.875l-3.851 4.875h-1.383v-6.922h1.428v4.875l3.833-4.875zM179.988 114.327l2.72 3.564h-1.724l-2.244-2.837h-1.212v2.837h-1.419v-6.922h1.419v2.828h1.212l2.19-2.828h1.563l-2.505 3.358z"
		fill="#000"/>
	<path d="M149.209 60.002l-1.697-8.017 8.331-1.948-6.634 9.965zm-.234-7.092l.835 3.96 3.277-4.92-4.112.96z"
				fill="#FFBC00"/>
</svg>
