<svg width="133" height="37" fill="none" xmlns="http://www.w3.org/2000/svg">
	<path
		d="M.355 22.068V4.322h3.632v7.276h8.208V4.322h3.62v17.746h-3.62v-7.275H3.987v7.275H.355zM31.666 16.752h-10.09c.455 1.546 1.773 2.637 3.574 2.637 1.42 0 2.612-.684 3.246-1.826l2.813 1.268c-1.14 2.053-3.322 3.5-6.16 3.5-3.98 0-6.998-2.942-6.998-6.796s2.966-6.795 6.87-6.795c4.388-.007 7.455 3.644 6.745 8.012zm-10.04-2.618h6.617c-.456-1.471-1.699-2.46-3.323-2.46-1.544 0-2.812.989-3.294 2.46zM40.793 8.987h6.212v13.081h-3.22V9.747l-3.55 12.321h-6.212V8.987h3.219V21.41l3.55-12.423zM63.612 15.528c0 3.854-2.384 6.795-5.628 6.795-2.333 0-4.058-1.594-4.818-4.007v8.824h-3.422V8.987h3.417v3.752c.76-2.409 2.485-4.006 4.817-4.006 3.25 0 5.634 2.941 5.634 6.795zm-3.55 0c0-2.078-1.47-3.65-3.322-3.65-2.079 0-3.575 1.572-3.575 3.65 0 2.104 1.496 3.676 3.575 3.676 1.851 0 3.322-1.572 3.322-3.676zM72.282 8.733c3.987 0 6.998 2.941 6.998 6.795s-3.017 6.795-6.998 6.795c-3.98 0-6.997-2.94-6.997-6.795 0-3.854 3.017-6.795 6.997-6.795zm0 10.471c1.978 0 3.456-1.572 3.456-3.676 0-2.078-1.472-3.65-3.456-3.65-1.952 0-3.447 1.572-3.447 3.65 0 2.104 1.495 3.676 3.447 3.676zM81.005 16.998V13.98h6.693v3.017h-6.693zM89.929 22.068V8.987h12.525v13.081H99.03V12.004h-5.679v10.064H89.93zM111.708 8.733c2.791 0 5.172 1.496 6.287 4.158l-3.143 1.09c-.583-1.349-1.753-2.104-3.144-2.104-1.953 0-3.449 1.573-3.449 3.651 0 2.104 1.496 3.676 3.449 3.676 1.394 0 2.561-.785 3.144-2.126l3.143 1.09c-1.115 2.658-3.499 4.158-6.287 4.158-3.981 0-6.997-2.941-6.997-6.795s3.016-6.798 6.997-6.798zM126.788 8.987H133v13.081h-3.215V9.747l-3.55 12.321h-6.212V8.987h3.221V21.41l3.544-12.423zM2.933 31.115a2.791 2.791 0 012.658 1.743l-1.05.357a1.7 1.7 0 00-1.595-1.05c-.995 0-1.763.779-1.763 1.829 0 1.05.768 1.818 1.763 1.818a1.686 1.686 0 001.595-1.049l1.04.357a2.792 2.792 0 01-2.657 1.742C1.267 36.862 0 35.624 0 33.994s1.267-2.879 2.933-2.879zM12.046 34.373H7.468a1.85 1.85 0 003.455.52l.953.422a2.88 2.88 0 01-2.62 1.547c-1.666 0-2.933-1.244-2.933-2.868a2.824 2.824 0 012.88-2.879c1.772 0 3.05 1.453 2.843 3.258zm-4.545-.887h3.397c-.185-.797-.823-1.386-1.7-1.386-.842 0-1.503.574-1.697 1.386zM14.33 36.754v-4.518h-1.905V31.23h4.935v1.006h-1.894v4.518H14.33zM18.237 36.754v-5.53h1.136v1.743h1.559c1.244 0 2.067.789 2.067 1.893 0 1.105-.823 1.894-2.067 1.894h-2.695zm1.136-1.006h1.44c.605 0 1.017-.379 1.017-.888s-.412-.888-1.018-.888h-1.439v1.776zM30.294 33.907l2.175 2.847H31.1l-1.797-2.26h-.967v2.26h-1.137v-5.53h1.137v2.26h.963l1.753-2.26h1.244l-2.001 2.683zM32.837 36.84v-1.016h.133c.726 0 1.05-.195 1.05-1.83v-2.77h4.59v5.53h-1.132v-4.518H35.1v1.763c0 1.982-.542 2.847-2.175 2.847l-.087-.005zM44.093 31.224h1.115v5.53H44.07v-3.896l-3.074 3.896h-1.104v-5.53h1.136v3.896l3.064-3.896zM46.485 36.754v-5.53h1.136v2.26h2.976v-2.26h1.136v5.53h-1.136v-2.26h-2.976v2.26h-1.136zM57.22 31.224h1.116v5.53H57.2v-3.896l-3.075 3.896h-1.097v-5.53h1.136v3.896l3.057-3.896zM62.708 33.907l2.174 2.847h-1.374l-1.797-2.26h-.962v2.26h-1.136v-5.53h1.136v2.26h.962l1.755-2.26h1.244l-2.002 2.683z"
		fill="#181716"/>
	<path d="M38.712 8.104L37.358 1.7l6.658-1.56-5.306 7.965zm-.188-5.664l.665 3.16 2.622-3.93-3.287.77z" fill="#FFBC00"/>
</svg>
