<svg width="260" height="23" xmlns="http://www.w3.org/2000/svg">
	<path fill-rule="evenodd" clip-rule="evenodd"
				d="M51.313.659c-3.291 1.096-4.243 2.298-4.365 6.47-.061 2.28-.201 9.052.174 10.952 1.127 5.428 11.106 5.613 16.117 4.11 3.221-.972 3.85-2.35 3.911-6.373.061-2.97 0-5.63.061-7.867 0-4.42-.986-7.133-5.744-7.672-2.995-.363-7.5-.495-10.163.38h.009zm11.978 16.088V6.776c.079-2.802-4.042-2.44-6.111-2.44-2.27 0-6.234-.239-6.234 2.44v9.97c0 1.397 1.746 1.919 3.728 2.06 1.818.064 3.637.011 5.448-.159 1.85-.141 3.056-.663 3.134-1.918l.035.018zM26.463.09c4.82 0 10.238-.333 13.216.28 2.978.612 4.538 2.504 4.538 6.306 0 6.306-1.974 8.108-6.353 8.567-.126.01-.252.01-.379 0-2.59.226-6.008 0-10.334 0v5.649c0 .559-.218 1.095-.604 1.49a2.04 2.04 0 01-1.458.618 2.04 2.04 0 01-1.458-.617 2.133 2.133 0 01-.604-1.491v-3.604c-.079-2.648 0-5.783 0-8.405 0-2.135.08-4.423 0-6.558A1.934 1.934 0 0123.37.917c.145-.2.327-.369.536-.497.209-.127.44-.212.68-.248A9.161 9.161 0 0126.456.09h.009zm11.11 4.253H27.16v6.738h9.162c2.644 0 4-.18 4.115-3.26.114-3.082-.775-3.415-2.863-3.478z"
				fill="#EC2327"/>
	<path
		d="M20.34 20.881V8.077c.017-4.49-1.01-7.245-5.77-7.796-2.986-.353-7.512-.515-10.183.388C1.114 1.771.157 2.991.035 7.236c0 1.635-.079 5.538 0 8.375v5.248c.001.278.055.552.158.808.104.256.255.489.444.684.19.196.416.35.663.455.248.105.513.159.78.158.54 0 1.057-.221 1.44-.615.383-.395.6-.93.605-1.49V6.875c0-2.719 3.978-2.475 6.258-2.475 2.028 0 6.04-.361 5.962 2.475v14.02c.001.278.055.552.158.808.104.256.255.489.445.684.19.196.415.35.662.456a1.991 1.991 0 002.214-.459c.38-.395.516-.944.516-1.503z"
		fill="#EC2327"/>
	<path fill-rule="evenodd" clip-rule="evenodd"
				d="M69.865 20.89c.003-.564.22-1.105.607-1.503a2.04 2.04 0 011.457-.626h1.37l8.929-17.61c.193-.378.49-.688.855-.891.364-.204.779-.29 1.19-.25a2.01 2.01 0 011.18.253 2.1 2.1 0 01.84.888l8.93 17.61h.878a2.04 2.04 0 011.457.626c.386.398.604.939.606 1.502a2.177 2.177 0 01-.16.81c-.104.258-.256.49-.448.687a2.052 2.052 0 01-.668.456 2 2 0 01-.787.158H71.93a2 2 0 01-.787-.158 2.053 2.053 0 01-.669-.456 2.124 2.124 0 01-.448-.686 2.177 2.177 0 01-.16-.81zM84.274 6.295l-6.33 12.465h12.634L84.274 6.296zM126.087.08c.297.001.592.057.866.164.275.107.524.263.733.46.21.196.376.429.489.685.112.256.17.53.168.807v6.212L140.557.386a2.444 2.444 0 011.695-.358 2.34 2.34 0 011.482.844c.172.228.295.485.361.756.066.272.073.553.022.827-.051.275-.16.537-.321.772-.16.235-.369.439-.614.598l-11.623 7.67 11.623 7.671c.493.325.828.817.931 1.37a2.007 2.007 0 01-.379 1.583 2.348 2.348 0 01-1.479.85 2.455 2.455 0 01-1.698-.346l-12.214-8.03v6.302c0 .275-.058.547-.172.801-.113.254-.28.485-.489.679-.21.194-.459.347-.732.452a2.396 2.396 0 01-.863.156c-.599 0-1.174-.219-1.6-.61a2.042 2.042 0 01-.676-1.478v-18.7a2.06 2.06 0 01.672-1.49 2.387 2.387 0 011.604-.625zM159.168 4.238v16.661a2.083 2.083 0 01-.646 1.484 2.249 2.249 0 01-2.376.46 2.184 2.184 0 01-.709-.455 2.1 2.1 0 01-.474-.683 2.037 2.037 0 01-.167-.806V4.238h-5.788c-.582 0-1.14-.222-1.553-.617a2.092 2.092 0 01-.652-1.493 2.107 2.107 0 01.651-1.5c.412-.398.97-.623 1.554-.628h15.949c.288.001.573.057.839.165a2.2 2.2 0 01.71.462c.203.198.364.432.473.69a2.073 2.073 0 01-.476 2.303c-.41.396-.966.618-1.546.618h-5.789zM244.067 9.236h8.328c2.941 0 4.057.1 4.057-2.413 0-1.807-.673-2.575-4.057-2.575h-8.328v4.988zm0 9.534h10.502c1.517-.325 1.883-1.084 1.883-2.412 0-2.513-1.116-2.404-4.057-2.404h-8.328v4.835-.019zM254.765 23h-13.102a1.94 1.94 0 01-1.41-.61 2.183 2.183 0 01-.593-1.487V2.123a2.2 2.2 0 01.586-1.495A1.96 1.96 0 01241.655 0h11.209c3.64 0 7.126 1.491 7.126 5.983a13.104 13.104 0 01-.554 4.329 4.28 4.28 0 01-.333.696 1.24 1.24 0 00.103 1.283c.109.232.206.47.289.714.377 1.345.544 2.746.495 4.148a6.146 6.146 0 01-1.551 3.988c-.968 1.077-2.282 1.73-3.683 1.832l.009.027zM105.258.659c-3.291 1.096-4.243 2.298-4.365 6.47-.061 2.28-.201 9.052.175 10.952 1.126 5.428 11.114 5.613 16.125 4.11 3.213-.972 3.841-2.35 3.902-6.373.062-2.97 0-5.63.062-7.867 0-4.42-.987-7.133-5.745-7.672-2.995-.363-7.5-.495-10.162.38h.008zm11.979 16.088V6.776c.078-2.802-4.043-2.44-6.112-2.44-2.27 0-6.233-.239-6.233 2.44v9.97c0 1.397 1.746 1.919 3.728 2.06 1.817.064 3.637.01 5.447-.159 1.851-.141 3.056-.663 3.135-1.918l.035.018zM174.24.659c-3.281 1.096-4.252 2.298-4.374 6.47-.061 2.28-.193 9.052.201 10.952 1.102 5.428 11.127 5.613 16.13 4.11 3.219-.972 3.858-2.35 3.937-6.373V7.951c.043-4.42-.989-7.133-5.747-7.672-2.992-.363-7.497-.495-10.182.38h.035zm11.984 16.088V6.776c.078-2.802-4.059-2.44-6.124-2.44-2.265 0-6.245-.239-6.245 2.44v9.97c0 1.397 1.749 1.919 3.761 2.06 1.812.064 3.627.01 5.432-.159 1.864-.141 3.062-.663 3.149-1.918l.027.018zM221.104.659c-3.301 1.096-4.245 2.298-4.367 6.47-.052 2.28-.192 9.052.184 10.952 1.126 5.428 11.109 5.613 16.122 4.11 3.223-.972 3.852-2.35 3.913-6.373.052-2.97 0-5.63.052-7.867 0-4.42-.987-7.133-5.738-7.672-3.004-.363-7.502-.495-10.166.38zm12.018 16.088V6.776c.078-2.802-4.053-2.44-6.114-2.44-2.271 0-6.245-.239-6.245 2.44v9.97c0 1.397 1.747 1.919 3.738 2.06 1.816.064 3.633.011 5.442-.159 1.86-.141 3.065-.663 3.144-1.918l.035.018zM196.533.068c4.831 0 9.947-.289 12.921.324 2.975.613 4.56 2.506 4.56 6.31 0 6.31-1.972 8.113-6.346 8.582-.126.01-.253.01-.379 0-2.64.225-6.029.045-10.324.045v5.562c0 .56-.217 1.096-.603 1.491-.386.396-.91.618-1.456.618-.546 0-1.07-.222-1.456-.618a2.133 2.133 0 01-.604-1.491v-3.606c-.096-2.65-.052-5.787 0-8.42 0-2.136.062-4.416 0-6.553A1.939 1.939 0 01193.188.9c.292-.405.73-.675 1.216-.751a9.701 9.701 0 011.848-.081h.281zm10.774 4.29h-10.35v6.743h9.135c2.641 0 4.014-.18 4.137-3.254.123-3.074-.783-3.425-2.931-3.488h.009z"
				fill="#117DC1"/>
</svg>
