<svg xmlns="http://www.w3.org/2000/svg" width="1440" height="381" fill="#FEC">
	<path d="M0 0h1440v381H0V0z"/>
	<path fill="#181716" fill-opacity=".2"
				d="M1405.5 298.623l-65.67-38.482a3.323 3.323 0 00-2.02-.441l-54.57 5.063-1.89-7.931a3.286 3.286 0 00-.3-.738l-9.57-16.722a1.948 1.948 0 00-.14-.227l-9.57-13.596a3.12 3.12 0 00-.51-.569l-12.79-10.812a2.44 2.44 0 00-.33-.246l-14.66-9.478-5.98-10.54-5.07-9.983a2.568 2.568 0 00-.43-.647l-8.92-10.035a3.269 3.269 0 00-2.14-1.062l-2.92-.272 1.18-5.866 7.44-13.194c.14-.267.25-.553.3-.848l3.2-16.632 2.57-14.774a2.74 2.74 0 00-.18-1.547l-7.03-16.561a3.057 3.057 0 00-1.54-1.56l-8.19-3.8-6.55-8.831a3.19 3.19 0 00-1.81-1.185l-19.12-4.733a3.538 3.538 0 00-.83-.097h-19.76c-.21 0-.43.021-.64.065l-37 7.122c-.57.11-1.1.362-1.53.731l-9.54 8.268c-.37.318-.65.713-.82 1.152-.17.439-.23.909-.17 1.373l1.28 9.458c.07.482.27.94.57 1.334.31.394.72.712 1.19.926l7.05 3.237-5.48 15.078c-.11.304-.17.624-.17.945v5.73l-1.21 9.025-2.29 6.94-7.74 9.711c-.39.477-.6 1.05-.63 1.644-.02.594.15 1.181.49 1.684l1.97 2.926c.25.366.58.676.97.91.4.234.84.385 1.3.443l5.93.751-.26 1.166c-.06.289-.07.586-.04.88l.49 4.467c.08.643.38 1.244.86 1.712.48.468 1.11.776 1.8.878l.85.129-1.1 2.357c-.17.359-.26.745-.26 1.136-.01.391.07.78.22 1.143l1.86 4.279c0 3.056.7 14.243 9.08 15.363 4.38.596 14.21.246 17.79.091l3.35 2.797-9.5 13.22-10.12 4.972c-.26.122-.49.277-.7.46l-11.48 10.054c-.29.235-.52.516-.7.829l-11.41 21.286c-.05.104-.09.208-.14.311l-9.94 25.372-13.31 11.783-9.83 6.384-11.74 5.613-11.06 3.696-14.26 2.428-58.843-42.405a3.318 3.318 0 00-1.464-.585 3.437 3.437 0 00-1.586.144l-66.308 22.472a3.185 3.185 0 00-1.391.921 2.858 2.858 0 00-.677 1.456 2.763 2.763 0 00.232 1.57c.231.494.602.92 1.075 1.232l26.188 17.299-16.277 14.081c-.09.085-.181.169-.258.253l-14.658 16.082a2.886 2.886 0 00-.607 1.01l-4.341 12.663-25.323 38.132c-.056.085-.112.169-.161.259l-19.948 38.165-8.627 4.306c-.375.186-.706.44-.973.747-.268.307-.466.66-.584 1.039l-4.313 13.829-5.584 7.122-7.531 3.237a3.073 3.073 0 00-1.64 1.625l-2.876 6.927-13.96 10.242c-4.062.537-22.335 2.816-38.863 2.816-18.65 0-39.478-2.894-39.688-2.926a3.42 3.42 0 00-1.444.106 3.246 3.246 0 00-1.243.69c-3.28 2.927-11.007 10.359-11.007 15.104 0 21.786 29.008 29.704 30.244 30.027l.125.033c1.857.414 45.418 10.086 49.313 10.688 2.701.415 29.908 6.895 47.539 11.149a3.384 3.384 0 002.241-.227l11.475-5.405a3.2 3.2 0 001.053-.806c.285-.335.49-.722.601-1.137l5.737-21.779c.086-.332.109-.676.07-1.016l-1.598-13.874 3.489-.648a3.296 3.296 0 001.37-.591c.398-.296.714-.678.92-1.111l4.621-9.537c6.344-2.499 15.753-5.554 18.922-5.231.954.115 1.925.03 2.839-.249a6.553 6.553 0 002.445-1.363c3.071-2.699 3.399-8.066 3.378-10.507l7.377-10.106 9.2 72.27c.048.352.162.694.335 1.01l9.513 17.046 4.516 8.909-3.971 9.459a2.845 2.845 0 00-.217 1.074v14.781c0 .466.118.925.346 1.341.229.415.56.774.967 1.048l3.085 2.084-17.185 9.375-41.111 12.301a3.246 3.246 0 00-1.201.647 2.95 2.95 0 00-.788 1.062c-.168.388-4.104 9.601 1.515 18.043 8.703 13.071 26.307 16.153 40.978 16.153a120.16 120.16 0 0023.815-2.473l63.754-16.561a3.208 3.208 0 001.68-1.058 2.821 2.821 0 00.651-1.784v-13.013a2.788 2.788 0 00-.44-1.489l-8.822-14.004-5.479-11.854-1.159-9.122 1.787-7.186a2.778 2.778 0 00-.077-1.599l-2.931-8.151 1.109-5.684 2.555-11.265a2.747 2.747 0 00-.027-1.348 2.878 2.878 0 00-.671-1.196l-7.14-7.62 2.673-8.527c.086-.271.131-.552.133-.835V517.5l97.226 16.405-20.94 94.185c-.16.757-.01 1.544.44 2.193.45.65 1.16 1.11 1.97 1.284l11.09 2.363c.23.048.47.072.7.071h13.39c.73.001 1.43-.227 2-.648a2.96 2.96 0 001.11-1.663l22.31-92.988 150.18 28.694 26.14 60.002c.24.546.65 1.015 1.17 1.345.53.33 1.15.506 1.78.506h17.86c.49 0 .98-.107 1.43-.313.44-.207.82-.506 1.12-.874.3-.369.5-.796.58-1.249.09-.452.06-.917-.08-1.358l-21.35-66.948L1406.74 302.3c.3-.649.34-1.378.11-2.053-.22-.675-.71-1.252-1.35-1.624zm-243.38 170.521l-105.17-74.167 115.71-53.088 69.28 46.109 4.72 21.086-84.54 60.06zm85.97-53.651l30.36 135.691-111.07-78.336 80.71-57.355zm-270.534 44.918l64.214-58.448 4.58-2.098 29.09 127.98-96.935-16.334-.949-51.1zm-81.804-55.535l-11.956 8.041 10.009-33.575 1.947 25.534zm.531 6.94l3.706 48.556-34.557 14.243 15.648-52.511 15.203-10.288zm77.95-131.23l51.347 36.999-50.035 33.666-1.312-70.665zm54.547 42.146l15.61 68.561-6.35 5.795-61.113 28.045-1.242-66.683 53.095-35.718zm249.29-52.705l4.55 14.793-44.08 20.232-12.57-17.688-10.33-46.167 62.43 28.83zm6.79.524l36.16-3.36-32.6 14.968-3.56-11.608zm5.58 107.393l-48.36-67.927 42.31-19.422 23.09 75.248-17.04 12.101zm18.89-5.989l17.54 57.134-32.89-46.206 15.35-10.928zm-76.56-64.262l-2.1.952-1.26-5.652 3.36 4.7zm-16.34-33.665l-34.45-48.362 26.36 12.165 8.09 36.197zm-38.91-57.018l19.95-27.767 9.22 41.227-29.17-13.46zm-4.66-4.156l-51.93-72.892 63.12-10.78 11.62 51.955-22.81 31.717zm47.06 76.822l4.89 21.681-51.54 23.65-54.44-36.222 54.03-75.23 47.06 66.121zm6.19 27.657l13.92 62.106-60.9-40.528 46.98-21.578zm-59.33 20.646l-113.56 52.123 62.07-86.41 51.49 34.287zm-196.204 90.055l-64.41 29.561-3.804-49.851 67.006-45.06 1.208 65.35zm.125 6.539l.433 23.404-58.372 53.159-6.01-47.216 63.949-29.347zm6.317-2.901l46.392-21.293-46.008 41.894-.384-20.601zm104.612 94.671l-28.9-126.892 104.14 73.423-75.24 53.469zm167.96-133.269l10.12 6.726-7.43 5.277-2.69-12.003zm-1.92-8.546l-15.63-69.921 4.29-1.942 49.06 68.885-20.41 14.502-17.31-11.524zm41.24 1.942l34.51 48.446-53.05-35.284 18.54-13.162zm47.32 51.443l-21.44-69.823 81.18-57.691-59.74 127.514zm62-136.603l-85.31 60.649-22.72-74.025 47.74-21.915 60.29 35.291zM1209 177.939l7.83 8.824 4.94 9.711.06.117 6.37 11.239c.24.418.58.777 1 1.049l15.15 9.782 12.3 10.423 9.26 13.175 9.3 16.257.98 4.027-62.22-28.707-11.5-51.482 3.39-4.713 3.14.298zm1.76-27.444l-7.43 13.201c-.14.259-.25.536-.31.822l-1.79 8.87-.6.841-10.32-46.115 25.38-4.331-1.83 10.604-3.1 16.108zm-9.77-49.397c.3.412.72.745 1.2.971l7.84 3.632 5.14 12.184-26.15 4.461-7.38-33.018 12.99 3.237 6.36 8.533zm-85.6 7.018l-.86-6.377 7.72-6.688 35.78-6.863h16.85l7.88 35.213-63.95 10.915v-1.884l6.19-17.072c.24-.68.22-1.42-.08-2.082a3.093 3.093 0 00-1.54-1.518l-7.99-3.644zm30.42 91.99a3.352 3.352 0 00-2.3-.757c-3.66.187-13.96.557-17.86 0-2.47-.33-3.72-6.144-3.65-10.022 0-.399-.07-.795-.23-1.166l-1.6-3.593 2.2-4.7c.2-.412.29-.86.26-1.309-.02-.45-.15-.888-.38-1.283a2.99 2.99 0 00-.96-.995c-.39-.26-.85-.432-1.33-.504l-2.47-.376-.2-1.774.83-3.82c.08-.395.08-.803-.02-1.198a2.727 2.727 0 00-.52-1.095 2.986 2.986 0 00-.95-.813 3.276 3.276 0 00-1.22-.396l-7.8-.984v-.046l6.78-8.481c.21-.267.38-.567.48-.887l2.55-7.691c.06-.162.1-.329.12-.498l.21-1.535 45.9 64.45-11.76-5.432-6.08-5.095zm-38.09 61.317l11.17-20.672 10.75-9.414 10.47-5.14c.47-.229.86-.563 1.16-.971l9.92-13.797 17.08 7.905-54.63 76-15.24-10.139 9.32-23.772zm-60.37 56.421c.17-.028.34-.07.5-.123l11.47-3.832c.14-.045.26-.097.39-.156l12.11-5.826c.13-.06.25-.127.37-.201l10.23-6.604c.13-.085.26-.178.38-.278l12.08-10.728 15.23 10.132-60.73 84.526-14.74-64.741 12.71-2.169zm-130.24 17.092l18.985-16.431c.347-.298.618-.664.793-1.071a2.761 2.761 0 00-.178-2.527 3.026 3.026 0 00-.936-.966l-24.429-16.153 56.432-19.125 1.452 76.822-67.398 45.319-2.938-38.45 4.083-11.906 14.134-15.512zm-44.14 66.91l13.652-20.588-11.09 37.22-17.359 11.653 14.797-28.285zm-69.903 90.204a3.324 3.324 0 001.501-.609l15.299-11.232c.448-.329.793-.762.999-1.256l2.722-6.571 7.119-3.043a3.113 3.113 0 001.236-.952l6.379-8.138a2.99 2.99 0 00.482-.913l4.09-13.136 8.376-4.143c.122-.073.238-.153.349-.24l21.176-14.243-14.915 50.045-80.268 33.018-37.063-16.606c6.672.537 14.385.978 21.875.978 19.166.025 39.778-2.843 40.643-2.959zm-87.694 10.112c.097-1.366 3.489-5.606 7.538-9.465l47.058 21.125-30.013 12.359c-4.844-1.521-24.583-8.701-24.583-24.019zm121.281 45.882c-7.957-1.942-43.275-10.416-46.925-10.973-2.464-.382-24.653-5.251-39.709-8.578l27.459-11.298 63.837 28.661-4.662 2.188zm9.681-6.474l-61.22-27.489 70.587-29.036-6.449 21.649c-.107.358-.14.732-.098 1.101l1.849 16.017-4.669 17.758zm41.6-63.537a2.819 2.819 0 00-.545 1.82c.196 3.198-.635 6.558-1.396 6.953a.359.359 0 01-.153 0c-6.282-.648-20.521 5.004-23.313 6.144a3.081 3.081 0 00-1.626 1.508l-3.651 7.614 6.003-20.154 31.221-12.838-6.54 8.953zm28.687 63.447l-2.918-22.912 57.584-52.44.879 47.196-42.605 81.917-2.617-1.768v-12.728l4.244-10.125c.157-.374.231-.773.217-1.174a2.773 2.773 0 00-.301-1.157l-5.186-10.164-9.297-16.645zm-44.992 96.276c-2.904-4.357-2.094-9.245-1.445-11.478l39.834-11.932c.222-.065.436-.154.635-.266l20.039-10.928 11.866 6.681-49.648 39.674.419.453c-8.767-1.586-17.017-5.082-21.7-12.204zm57.751 11.097c-.244.058-13.96 2.991-28.359 2.007l47.337-37.822 37.579 21.125-56.557 14.69zm52.642-39.719c.051.111.109.219.174.324l8.495 13.505v6.96l-37.259-20.944 22.043-17.616.572 4.532c.036.281.116.556.237.815l5.738 12.424zm-4.998-57.121l-2.24 9.912-1.278 6.474c-.096.489-.057.992.112 1.463l2.904 8.08-1.473 5.937-27.34 21.902-12.843-7.206 37.314-71.701v4.998l-3.057 9.64c-.151.476-.171.98-.058 1.466.114.485.357.936.707 1.311l7.252 7.724zm323.685 71.351h-11.44l-25.97-59.652a2.935 2.935 0 00-.91-1.163 3.25 3.25 0 00-1.4-.624l-154.95-29.567a3.38 3.38 0 00-2.37.414 2.981 2.981 0 00-1.39 1.839l-22.39 93.486h-10.47l-7.67-1.645 20.7-93.227 79.69-56.674 118.4 83.516 20.17 63.297zm-16.33-74.769l-30.67-137.096 11.4-8.106 66.55 44.283-47.28 100.919z"/>
</svg>
